<?xml version="1.0" standalone="no"?>
<!DOCTYPE svg PUBLIC "-//W3C//DTD SVG 20010904//EN"
 "http://www.w3.org/TR/2001/REC-SVG-20010904/DTD/svg10.dtd">
<svg version="1.0" xmlns="http://www.w3.org/2000/svg"
 width="512.000000pt" height="512.000000pt" viewBox="0 0 512.000000 512.000000"
 preserveAspectRatio="xMidYMid meet">
<metadata>
Created by potrace 1.14, written by Peter Selinger 2001-2017
</metadata>
<g transform="translate(0.000000,512.000000) scale(0.100000,-0.100000)"
fill="#000000" stroke="none">
<path d="M4145 3901 c-92 -23 -143 -50 -189 -101 -39 -43 -76 -117 -76 -151 0
-27 -17 -24 -24 5 -9 37 -99 124 -153 149 -47 21 -62 22 -558 29 -280 3 -550
7 -600 8 -98 2 -177 -19 -221 -61 -20 -19 -25 -20 -61 -8 -21 7 -44 18 -52 23
-30 23 -1630 37 -1729 15 -69 -14 -149 -65 -198 -125 -58 -72 -84 -155 -91
-286 -5 -94 -3 -114 16 -165 41 -111 146 -212 248 -238 41 -11 111 -15 240
-15 l183 0 0 -39 0 -40 -252 -3 -253 -3 -58 -29 c-75 -36 -137 -98 -173 -173
-27 -53 -29 -67 -29 -168 0 -106 1 -113 37 -185 39 -80 76 -125 139 -167 l39
-26 -34 -37 c-46 -51 -51 -62 -76 -165 -29 -117 -24 -268 10 -360 61 -160 186
-276 345 -320 33 -9 68 -20 77 -25 10 -5 73 -16 140 -24 332 -40 1158 -24
1263 23 11 5 45 17 75 27 77 24 127 55 189 118 l55 55 27 -47 c35 -60 80 -103
149 -140 l55 -30 905 -7 c692 -6 919 -5 963 5 52 10 65 19 127 81 49 49 72 80
80 109 24 88 33 227 34 495 1 272 0 281 -22 330 -13 27 -33 60 -44 72 l-22 23
22 43 c13 27 24 72 28 124 l7 81 51 7 c158 20 261 135 288 319 21 147 -9 254
-95 344 -53 55 -120 90 -190 98 l-55 7 -4 156 c-3 132 -7 163 -25 202 -76 168
-285 246 -508 190z m206 -231 c19 -5 47 -22 62 -37 51 -54 57 -86 57 -293 l0
-190 53 0 c209 -2 277 -47 277 -187 0 -54 -4 -70 -25 -98 -38 -49 -77 -63
-197 -71 l-108 -7 0 -132 c0 -126 -1 -135 -28 -186 -42 -82 -128 -122 -211
-99 -53 14 -87 44 -116 101 l-25 48 0 502 c0 347 4 513 11 540 28 92 138 140
250 109z m-806 -71 c65 -33 110 -93 126 -166 16 -81 16 -767 -1 -848 -10 -50
-20 -68 -59 -106 -81 -82 -190 -91 -259 -20 -70 70 -75 98 -81 439 -6 286 -7
304 -25 318 -16 11 -69 14 -265 14 -249 0 -443 13 -494 32 -46 18 -72 79 -71
168 0 100 34 161 104 189 16 6 198 9 500 8 l476 -2 49 -26z m-1900 12 c431 -7
441 -8 493 -30 71 -32 128 -98 139 -159 4 -26 8 -159 8 -297 0 -290 -5 -318
-70 -382 -42 -43 -42 -43 -117 -43 -67 0 -79 3 -116 30 -23 16 -47 40 -54 52
-8 15 -14 85 -18 195 -3 94 -9 175 -13 180 -5 4 -196 9 -425 10 -470 3 -884
18 -934 35 -95 31 -142 148 -108 267 12 44 74 107 117 122 85 28 341 32 1098
20z m-229 -611 c52 -49 66 -90 72 -207 l5 -103 396 0 c364 0 399 -2 437 -19
66 -30 84 -61 84 -147 0 -64 -3 -76 -26 -104 -31 -36 -64 -54 -119 -65 -55
-11 -1790 -6 -1818 4 -71 27 -125 117 -114 188 8 48 77 119 132 135 27 8 136
12 330 13 l290 0 5 115 c6 130 20 167 81 208 30 21 43 23 121 20 84 -3 88 -4
124 -38z m1652 -224 c1 -169 6 -264 13 -273 6 -7 9 -19 6 -27 -4 -11 -46 -15
-209 -19 -112 -2 -213 -8 -225 -12 -21 -7 -22 -6 -12 31 22 77 -18 215 -87
305 -25 33 -49 59 -55 59 -5 0 -9 44 -9 100 l0 100 288 -2 287 -3 3 -259z
m1297 -539 c67 -22 109 -67 130 -141 15 -50 16 -92 12 -275 -6 -285 -27 -361
-107 -393 -16 -7 -316 -10 -849 -8 -883 1 -861 0 -908 52 -34 36 -43 101 -49
338 -9 343 14 400 176 436 42 10 232 12 800 10 666 -2 750 -4 795 -19z m-2535
-42 c130 -22 164 -31 246 -70 91 -42 146 -92 181 -163 25 -51 28 -68 28 -157
0 -89 -3 -106 -28 -157 -63 -128 -203 -200 -452 -234 -170 -22 -731 -22 -899
1 -255 34 -415 122 -462 252 -7 21 -13 80 -14 134 0 83 3 102 26 147 31 63 98
123 184 167 83 42 114 50 285 74 204 29 204 29 520 25 203 -2 318 -8 385 -19z"/>
<path d="M2975 1856 c-4 -18 -5 -44 -3 -57 l3 -24 535 -5 c294 -3 550 -3 568
-1 31 3 32 5 32 50 0 26 -5 52 -12 59 -9 9 -148 12 -565 12 l-552 0 -6 -34z"/>
<path d="M1000 1875 c-169 -31 -185 -86 -39 -133 47 -15 100 -17 434 -17 336
0 384 2 416 17 107 50 65 107 -98 134 -112 18 -616 18 -713 -1z"/>
</g>
</svg>
